# xmcd
#
# Track frame offsets:
#	151
#	18515
#	38011
#	52259
#	68791
#	90404
#	106097
#	122193
#	139649
#	154117
#	175097
#	198252
#	219654
#	238403
#	258862
#	278421
#	305211
#
# Disc length: 4358
#
# Revision: 2
# Processed by: cddbd v1.5.1PL0 Copyright (c) Steve Scherf et al.
# Submitted via: DiscPlay 4.0.4
# Normalized: r1:TDELIM( - )
#
DISCID=ee110411
DTITLE=Various Artist - Erotic Love 98
DYEAR=1900
DGENRE=
TTITLE0=Natalie Imbruglia - Torn
TTITLE1=Warren G and Sissel - Prince Igor
TTITLE2=Sweetbox - Everything's Gonna Be Alright
TTITLE3=Backstreet's Boys - As Long As You Love Me
TTITLE4=Tina Turner and Eros Ramazzotti - Cose Della Vita
TTITLE5=Lightning Seeds - You Snowed Me
TTITLE6=Diana King - I Say A Little Prayer
TTITLE7=Gala - Freed From Desire (Slow Version)
TTITLE8=BoyZone - Baby Can I Hold You
TTITLE9=Celine Dion - My Heart Will Go On (Love Theme From Titanic)
TTITLE10=Spice Girls - Viva Forever
TTITLE11=Gary Barlow - Forever Love
TTITLE12=Elton John - Candel In The Wind 1997
TTITLE13=Mariah Carey - ButterFly
TTITLE14=Aqva - Be A Man
TTITLE15=The Verbe - Bitter Sweet Symphony
TTITLE16=Celine Dion and Barbra Streisand - Tell Him
EXTD=
EXTT0=
EXTT1=
EXTT2=
EXTT3=
EXTT4=
EXTT5=
EXTT6=
EXTT7=
EXTT8=
EXTT9=
EXTT10=
EXTT11=
EXTT12=
EXTT13=
EXTT14=
EXTT15=
EXTT16=
PLAYORDER=
